{
	"asset":{
		"generator":"Khronos glTF Blender I/O v4.4.56",
		"version":"2.0"
	},
	"extensionsUsed":[
		"KHR_materials_specular",
		"KHR_materials_ior"
	],
	"scene":0,
	"scenes":[
		{
			"name":"Scene",
			"nodes":[
				0,
				1,
				2,
				3,
				4,
				5,
				6,
				7,
				8,
				9,
				10,
				11
			]
		}
	],
	"nodes":[
		{
			"mesh":0,
			"name":"\u8eab\u9ad4"
		},
		{
			"mesh":1,
			"name":"\u4e0a\u8863"
		},
		{
			"mesh":2,
			"name":"\u88d9\u5b50"
		},
		{
			"mesh":3,
			"name":"\u896a\u5b50"
		},
		{
			"mesh":4,
			"name":"\u978b\u5b50"
		},
		{
			"mesh":5,
			"name":"\u978b\u5b50.001"
		},
		{
			"mesh":6,
			"name":"\u7acb\u65b9\u9ad4",
			"translation":[
				0.19779007136821747,
				0.3157828152179718,
				0.6053984761238098
			]
		},
		{
			"mesh":7,
			"name":"bob_bow_hiar",
			"rotation":[
				0.7071068286895752,
				0,
				0,
				0.7071068286895752
			],
			"scale":[
				5.5351948738098145,
				5.5351948738098145,
				5.5351948738098145
			],
			"translation":[
				-0.015226250514388084,
				-6.113868236541748,
				0.22412845492362976
			]
		},
		{
			"mesh":8,
			"name":"bob_bow_hiar.001",
			"rotation":[
				0.7071068286895752,
				0,
				0,
				0.7071068286895752
			],
			"scale":[
				5.5351948738098145,
				5.5351948738098145,
				5.5351948738098145
			],
			"translation":[
				-0.015226250514388084,
				-6.113868236541748,
				0.22412845492362976
			]
		},
		{
			"mesh":9,
			"name":"bow",
			"rotation":[
				0.7071068286895752,
				0,
				0,
				0.7071068286895752
			],
			"scale":[
				5.5351948738098145,
				5.5351948738098145,
				5.5351948738098145
			],
			"translation":[
				-0.015226250514388084,
				-6.113868236541748,
				0.22412845492362976
			]
		},
		{
			"name":"bow_hair_shape",
			"rotation":[
				0.7071068286895752,
				0,
				0,
				0.7071068286895752
			],
			"scale":[
				5.5351948738098145,
				5.5351948738098145,
				5.5351948738098145
			],
			"translation":[
				-0.015226250514388084,
				-6.113868236541748,
				0.22412845492362976
			]
		},
		{
			"mesh":10,
			"name":"headband.004",
			"rotation":[
				0.7071068286895752,
				0,
				0,
				0.7071068286895752
			],
			"scale":[
				5.5351948738098145,
				5.5351948738098145,
				5.5351948738098145
			],
			"translation":[
				-0.015226250514388084,
				-6.113868236541748,
				0.22412845492362976
			]
		}
	],
	"materials":[
		{
			"doubleSided":true,
			"name":"Material.001",
			"pbrMetallicRoughness":{
				"baseColorFactor":[
					0.971549391746521,
					0.6611918807029724,
					0.3366973400115967,
					1
				],
				"metallicFactor":0,
				"roughnessFactor":0.5
			}
		},
		{
			"doubleSided":true,
			"name":"\u6750\u8cea.001",
			"pbrMetallicRoughness":{
				"baseColorFactor":[
					0.17893479764461517,
					0.39532575011253357,
					0.4246090352535248,
					1
				],
				"metallicFactor":0,
				"roughnessFactor":0.5
			}
		},
		{
			"doubleSided":true,
			"name":"\u6750\u8cea",
			"pbrMetallicRoughness":{
				"baseColorFactor":[
					0.396083801984787,
					0.3126959800720215,
					0.05446027219295502,
					1
				],
				"metallicFactor":0,
				"roughnessFactor":0.5
			}
		},
		{
			"doubleSided":true,
			"emissiveFactor":[
				0.05150961718147218,
				0.18280684569563554,
				0.22560644984268574
			],
			"name":"\u6750\u8cea.003",
			"pbrMetallicRoughness":{
				"baseColorFactor":[
					0.800000011920929,
					0.800000011920929,
					0.800000011920929,
					1
				],
				"metallicFactor":0,
				"roughnessFactor":0.5
			}
		},
		{
			"doubleSided":true,
			"emissiveFactor":[
				0.09999999403953552,
				0.048931369249142875,
				0.00834945539537335
			],
			"name":"\u6750\u8cea.004",
			"pbrMetallicRoughness":{
				"baseColorFactor":[
					0.17747487127780914,
					0.06349249184131622,
					0.030111726373434067,
					1
				],
				"metallicFactor":0,
				"roughnessFactor":0.5
			}
		},
		{
			"doubleSided":true,
			"name":"\u6750\u8cea.002",
			"pbrMetallicRoughness":{
				"baseColorFactor":[
					0.11333431303501129,
					0.07255495339632034,
					0.05215299874544144,
					1
				],
				"metallicFactor":0,
				"roughnessFactor":0.5
			}
		},
		{
			"doubleSided":true,
			"name":"hair.008",
			"pbrMetallicRoughness":{
				"baseColorFactor":[
					0.8009237051010132,
					0.07471957802772522,
					0.12589789927005768,
					1
				],
				"metallicFactor":0,
				"roughnessFactor":0.3999999761581421
			}
		},
		{
			"doubleSided":true,
			"extensions":{
				"KHR_materials_specular":{
					"specularFactor":0.8090899586677551
				},
				"KHR_materials_ior":{
					"ior":1.4500000476837158
				}
			},
			"name":"bow",
			"pbrMetallicRoughness":{
				"baseColorFactor":[
					0.800000011920929,
					0.009313000366091728,
					0.004991000052541494,
					1
				],
				"metallicFactor":0,
				"roughnessFactor":0.7363636493682861
			}
		}
	],
	"meshes":[
		{
			"name":"Cube.001",
			"primitives":[
				{
					"attributes":{
						"POSITION":0,
						"NORMAL":1,
						"TEXCOORD_0":2,
						"COLOR_0":3,
						"COLOR_1":4
					},
					"indices":5,
					"material":0
				}
			]
		},
		{
			"name":"Cube.004",
			"primitives":[
				{
					"attributes":{
						"POSITION":6,
						"NORMAL":7,
						"TEXCOORD_0":8
					},
					"indices":9,
					"material":1
				}
			]
		},
		{
			"name":"Cube.005",
			"primitives":[
				{
					"attributes":{
						"POSITION":10,
						"NORMAL":11,
						"TEXCOORD_0":12
					},
					"indices":13,
					"material":2
				}
			]
		},
		{
			"name":"Cube.002",
			"primitives":[
				{
					"attributes":{
						"POSITION":14,
						"NORMAL":15,
						"TEXCOORD_0":16
					},
					"indices":17,
					"material":3
				}
			]
		},
		{
			"name":"Cube.003",
			"primitives":[
				{
					"attributes":{
						"POSITION":18,
						"NORMAL":19,
						"TEXCOORD_0":20
					},
					"indices":21,
					"material":4
				}
			]
		},
		{
			"name":"Cube.006",
			"primitives":[
				{
					"attributes":{
						"POSITION":22,
						"NORMAL":23,
						"TEXCOORD_0":24
					},
					"indices":25,
					"material":4
				}
			]
		},
		{
			"name":"\u7acb\u65b9\u9ad4.001",
			"primitives":[
				{
					"attributes":{
						"POSITION":26,
						"NORMAL":27,
						"TEXCOORD_0":28
					},
					"indices":29,
					"material":5
				}
			]
		},
		{
			"name":"bob_bow_hiar",
			"primitives":[
				{
					"attributes":{
						"POSITION":30,
						"NORMAL":31,
						"TEXCOORD_0":32
					},
					"indices":33,
					"material":6
				}
			]
		},
		{
			"name":"bob_bow_hiar.001",
			"primitives":[
				{
					"attributes":{
						"POSITION":34,
						"NORMAL":35,
						"TEXCOORD_0":36
					},
					"indices":33,
					"material":6
				}
			]
		},
		{
			"name":"bow",
			"primitives":[
				{
					"attributes":{
						"POSITION":37,
						"NORMAL":38,
						"TEXCOORD_0":39
					},
					"indices":40,
					"material":7
				}
			]
		},
		{
			"name":"headband.004",
			"primitives":[
				{
					"attributes":{
						"POSITION":41,
						"NORMAL":42,
						"TEXCOORD_0":43
					},
					"indices":44,
					"material":7
				}
			]
		}
	],
	"accessors":[
		{
			"bufferView":0,
			"componentType":5126,
			"count":295,
			"max":[
				0.6535780429840088,
				0.84781813621521,
				0.6465034484863281
			],
			"min":[
				-4.051910946145654e-05,
				-1.6304469108581543,
				-0.24450218677520752
			],
			"type":"VEC3"
		},
		{
			"bufferView":1,
			"componentType":5126,
			"count":295,
			"type":"VEC3"
		},
		{
			"bufferView":2,
			"componentType":5126,
			"count":295,
			"type":"VEC2"
		},
		{
			"bufferView":3,
			"componentType":5121,
			"count":295,
			"normalized":true,
			"type":"VEC4"
		},
		{
			"bufferView":4,
			"componentType":5123,
			"count":295,
			"normalized":true,
			"type":"VEC4"
		},
		{
			"bufferView":5,
			"componentType":5123,
			"count":423,
			"type":"SCALAR"
		},
		{
			"bufferView":6,
			"componentType":5126,
			"count":62,
			"max":[
				0.6021728515625,
				0.007691871840506792,
				0.36685657501220703
			],
			"min":[
				0,
				-0.7692379951477051,
				-0.2212437093257904
			],
			"type":"VEC3"
		},
		{
			"bufferView":7,
			"componentType":5126,
			"count":62,
			"type":"VEC3"
		},
		{
			"bufferView":8,
			"componentType":5126,
			"count":62,
			"type":"VEC2"
		},
		{
			"bufferView":9,
			"componentType":5123,
			"count":90,
			"type":"SCALAR"
		},
		{
			"bufferView":10,
			"componentType":5126,
			"count":12,
			"max":[
				0.5571626424789429,
				-0.7437191605567932,
				0.413906067609787
			],
			"min":[
				0,
				-1.063712477684021,
				-0.3306606709957123
			],
			"type":"VEC3"
		},
		{
			"bufferView":11,
			"componentType":5126,
			"count":12,
			"type":"VEC3"
		},
		{
			"bufferView":12,
			"componentType":5126,
			"count":12,
			"type":"VEC2"
		},
		{
			"bufferView":13,
			"componentType":5123,
			"count":18,
			"type":"SCALAR"
		},
		{
			"bufferView":14,
			"componentType":5126,
			"count":16,
			"max":[
				0.3201431632041931,
				-1.2887194156646729,
				0.29368430376052856
			],
			"min":[
				0.03692564368247986,
				-1.5291025638580322,
				-0.07321365177631378
			],
			"type":"VEC3"
		},
		{
			"bufferView":15,
			"componentType":5126,
			"count":16,
			"type":"VEC3"
		},
		{
			"bufferView":16,
			"componentType":5126,
			"count":16,
			"type":"VEC2"
		},
		{
			"bufferView":17,
			"componentType":5123,
			"count":24,
			"type":"SCALAR"
		},
		{
			"bufferView":18,
			"componentType":5126,
			"count":51,
			"max":[
				0.34049761295318604,
				-1.5289747714996338,
				0.423900842666626
			],
			"min":[
				0.07475258409976959,
				-1.6304469108581543,
				-0.09316794574260712
			],
			"type":"VEC3"
		},
		{
			"bufferView":19,
			"componentType":5126,
			"count":51,
			"type":"VEC3"
		},
		{
			"bufferView":20,
			"componentType":5126,
			"count":51,
			"type":"VEC2"
		},
		{
			"bufferView":21,
			"componentType":5123,
			"count":69,
			"type":"SCALAR"
		},
		{
			"bufferView":22,
			"componentType":5126,
			"count":6,
			"max":[
				0.34049761295318604,
				-1.5814965963363647,
				0.3810071647167206
			],
			"min":[
				0.0754178911447525,
				-1.6304469108581543,
				-0.09316794574260712
			],
			"type":"VEC3"
		},
		{
			"bufferView":23,
			"componentType":5126,
			"count":6,
			"type":"VEC3"
		},
		{
			"bufferView":24,
			"componentType":5126,
			"count":6,
			"type":"VEC2"
		},
		{
			"bufferView":25,
			"componentType":5123,
			"count":6,
			"type":"SCALAR"
		},
		{
			"bufferView":26,
			"componentType":5126,
			"count":24,
			"max":[
				0.04890216514468193,
				0.08534809947013855,
				0.04795749858021736
			],
			"min":[
				-0.04890216514468193,
				-0.08534809947013855,
				-0.04795749858021736
			],
			"type":"VEC3"
		},
		{
			"bufferView":27,
			"componentType":5126,
			"count":24,
			"type":"VEC3"
		},
		{
			"bufferView":28,
			"componentType":5126,
			"count":24,
			"type":"VEC2"
		},
		{
			"bufferView":29,
			"componentType":5123,
			"count":36,
			"type":"SCALAR"
		},
		{
			"bufferView":30,
			"componentType":5126,
			"count":220500,
			"max":[
				0.11230400204658508,
				0.10044199973344803,
				-1.010077953338623
			],
			"min":[
				-0.12160400301218033,
				-0.14050999283790588,
				-1.2813069820404053
			],
			"type":"VEC3"
		},
		{
			"bufferView":31,
			"componentType":5126,
			"count":220500,
			"type":"VEC3"
		},
		{
			"bufferView":32,
			"componentType":5126,
			"count":220500,
			"type":"VEC2"
		},
		{
			"bufferView":33,
			"componentType":5125,
			"count":1274976,
			"type":"SCALAR"
		},
		{
			"bufferView":34,
			"componentType":5126,
			"count":220500,
			"max":[
				0.11230400204658508,
				0.10044199973344803,
				-1.010077953338623
			],
			"min":[
				-0.12160400301218033,
				-0.14050999283790588,
				-1.2813069820404053
			],
			"type":"VEC3"
		},
		{
			"bufferView":35,
			"componentType":5126,
			"count":220500,
			"type":"VEC3"
		},
		{
			"bufferView":36,
			"componentType":5126,
			"count":220500,
			"type":"VEC2"
		},
		{
			"bufferView":37,
			"componentType":5126,
			"count":93343,
			"max":[
				0.08989199995994568,
				-0.013346999883651733,
				-1.1857290267944336
			],
			"min":[
				-0.100040003657341,
				-0.11306200176477432,
				-1.333840012550354
			],
			"type":"VEC3"
		},
		{
			"bufferView":38,
			"componentType":5126,
			"count":93343,
			"type":"VEC3"
		},
		{
			"bufferView":39,
			"componentType":5126,
			"count":93343,
			"type":"VEC2"
		},
		{
			"bufferView":40,
			"componentType":5125,
			"count":539364,
			"type":"SCALAR"
		},
		{
			"bufferView":41,
			"componentType":5126,
			"count":4165,
			"max":[
				0.10437499731779099,
				-0.021265000104904175,
				-1.1406300067901611
			],
			"min":[
				-0.1111380010843277,
				-0.052184998989105225,
				-1.2869139909744263
			],
			"type":"VEC3"
		},
		{
			"bufferView":42,
			"componentType":5126,
			"count":4165,
			"type":"VEC3"
		},
		{
			"bufferView":43,
			"componentType":5126,
			"count":4165,
			"type":"VEC2"
		},
		{
			"bufferView":44,
			"componentType":5123,
			"count":24192,
			"type":"SCALAR"
		}
	],
	"bufferViews":[
		{
			"buffer":0,
			"byteLength":3540,
			"byteOffset":0,
			"target":34962
		},
		{
			"buffer":0,
			"byteLength":3540,
			"byteOffset":3540,
			"target":34962
		},
		{
			"buffer":0,
			"byteLength":2360,
			"byteOffset":7080,
			"target":34962
		},
		{
			"buffer":0,
			"byteLength":1180,
			"byteOffset":9440,
			"target":34962
		},
		{
			"buffer":0,
			"byteLength":2360,
			"byteOffset":10620,
			"target":34962
		},
		{
			"buffer":0,
			"byteLength":846,
			"byteOffset":12980,
			"target":34963
		},
		{
			"buffer":0,
			"byteLength":744,
			"byteOffset":13828,
			"target":34962
		},
		{
			"buffer":0,
			"byteLength":744,
			"byteOffset":14572,
			"target":34962
		},
		{
			"buffer":0,
			"byteLength":496,
			"byteOffset":15316,
			"target":34962
		},
		{
			"buffer":0,
			"byteLength":180,
			"byteOffset":15812,
			"target":34963
		},
		{
			"buffer":0,
			"byteLength":144,
			"byteOffset":15992,
			"target":34962
		},
		{
			"buffer":0,
			"byteLength":144,
			"byteOffset":16136,
			"target":34962
		},
		{
			"buffer":0,
			"byteLength":96,
			"byteOffset":16280,
			"target":34962
		},
		{
			"buffer":0,
			"byteLength":36,
			"byteOffset":16376,
			"target":34963
		},
		{
			"buffer":0,
			"byteLength":192,
			"byteOffset":16412,
			"target":34962
		},
		{
			"buffer":0,
			"byteLength":192,
			"byteOffset":16604,
			"target":34962
		},
		{
			"buffer":0,
			"byteLength":128,
			"byteOffset":16796,
			"target":34962
		},
		{
			"buffer":0,
			"byteLength":48,
			"byteOffset":16924,
			"target":34963
		},
		{
			"buffer":0,
			"byteLength":612,
			"byteOffset":16972,
			"target":34962
		},
		{
			"buffer":0,
			"byteLength":612,
			"byteOffset":17584,
			"target":34962
		},
		{
			"buffer":0,
			"byteLength":408,
			"byteOffset":18196,
			"target":34962
		},
		{
			"buffer":0,
			"byteLength":138,
			"byteOffset":18604,
			"target":34963
		},
		{
			"buffer":0,
			"byteLength":72,
			"byteOffset":18744,
			"target":34962
		},
		{
			"buffer":0,
			"byteLength":72,
			"byteOffset":18816,
			"target":34962
		},
		{
			"buffer":0,
			"byteLength":48,
			"byteOffset":18888,
			"target":34962
		},
		{
			"buffer":0,
			"byteLength":12,
			"byteOffset":18936,
			"target":34963
		},
		{
			"buffer":0,
			"byteLength":288,
			"byteOffset":18948,
			"target":34962
		},
		{
			"buffer":0,
			"byteLength":288,
			"byteOffset":19236,
			"target":34962
		},
		{
			"buffer":0,
			"byteLength":192,
			"byteOffset":19524,
			"target":34962
		},
		{
			"buffer":0,
			"byteLength":72,
			"byteOffset":19716,
			"target":34963
		},
		{
			"buffer":0,
			"byteLength":2646000,
			"byteOffset":19788,
			"target":34962
		},
		{
			"buffer":0,
			"byteLength":2646000,
			"byteOffset":2665788,
			"target":34962
		},
		{
			"buffer":0,
			"byteLength":1764000,
			"byteOffset":5311788,
			"target":34962
		},
		{
			"buffer":0,
			"byteLength":5099904,
			"byteOffset":7075788,
			"target":34963
		},
		{
			"buffer":0,
			"byteLength":2646000,
			"byteOffset":12175692,
			"target":34962
		},
		{
			"buffer":0,
			"byteLength":2646000,
			"byteOffset":14821692,
			"target":34962
		},
		{
			"buffer":0,
			"byteLength":1764000,
			"byteOffset":17467692,
			"target":34962
		},
		{
			"buffer":0,
			"byteLength":1120116,
			"byteOffset":19231692,
			"target":34962
		},
		{
			"buffer":0,
			"byteLength":1120116,
			"byteOffset":20351808,
			"target":34962
		},
		{
			"buffer":0,
			"byteLength":746744,
			"byteOffset":21471924,
			"target":34962
		},
		{
			"buffer":0,
			"byteLength":2157456,
			"byteOffset":22218668,
			"target":34963
		},
		{
			"buffer":0,
			"byteLength":49980,
			"byteOffset":24376124,
			"target":34962
		},
		{
			"buffer":0,
			"byteLength":49980,
			"byteOffset":24426104,
			"target":34962
		},
		{
			"buffer":0,
			"byteLength":33320,
			"byteOffset":24476084,
			"target":34962
		},
		{
			"buffer":0,
			"byteLength":48384,
			"byteOffset":24509404,
			"target":34963
		}
	],
	"buffers":[
		{
			"byteLength":24557788,
			"uri":"human1.bin"
		}
	]
}
