{
	"asset":{
		"generator":"Khronos glTF Blender I/O v4.4.56",
		"version":"2.0"
	},
	"scene":0,
	"scenes":[
		{
			"name":"Scene",
			"nodes":[
				0,
				1,
				2,
				3,
				4,
				5,
				6,
				7,
				8,
				9,
				10,
				11,
				12,
				13
			]
		}
	],
	"nodes":[
		{
			"mesh":0,
			"name":"\u8eab\u9ad4"
		},
		{
			"mesh":1,
			"name":"\u4e0a\u8863"
		},
		{
			"mesh":2,
			"name":"\u8932\u5b50.002"
		},
		{
			"mesh":3,
			"name":"\u978b\u5b50"
		},
		{
			"mesh":4,
			"name":"\u978b\u5b50.001"
		},
		{
			"mesh":5,
			"name":"\u7acb\u65b9\u9ad4",
			"translation":[
				0.19779007136821747,
				0.3157828152179718,
				0.6053984761238098
			]
		},
		{
			"mesh":6,
			"name":"\u4e0a\u8863.001"
		},
		{
			"mesh":7,
			"name":"\u8932\u5b50"
		},
		{
			"mesh":8,
			"name":"\u982d\u9aee"
		},
		{
			"mesh":9,
			"name":"\u773c\u93e1",
			"rotation":[
				0.7109804153442383,
				0,
				0,
				0.7032119035720825
			],
			"scale":[
				0.38851219415664673,
				0.3885122835636139,
				0.3885122835636139
			]
		},
		{
			"mesh":10,
			"name":"\u773c\u93e1.001",
			"translation":[
				-0.0029887736309319735,
				0.3189489543437958,
				0.7710582613945007
			]
		},
		{
			"name":"B\u00e9zierCircle.001",
			"rotation":[
				0.7071068286895752,
				0,
				0,
				0.7071068286895752
			],
			"translation":[
				2.1238064765930176,
				0.8027679324150085,
				-0.11522583663463593
			]
		},
		{
			"name":"\u982d\u9aee.001",
			"rotation":[
				1.7343651052215137e-05,
				0.0006565381190739572,
				0.15853558480739594,
				0.9873531460762024
			],
			"scale":[
				0.3071797788143158,
				0.3071797788143158,
				0.3071797490119934
			],
			"translation":[
				-0.08996238559484482,
				0.381139874458313,
				0.6425158977508545
			]
		},
		{
			"name":"\u982d\u9aee.002",
			"rotation":[
				0.15725551545619965,
				0.9794506430625916,
				0.020105356350541115,
				0.12467126548290253
			],
			"scale":[
				0.3071797788143158,
				0.3071797788143158,
				0.307179719209671
			],
			"translation":[
				-0.23817631602287292,
				0.38419851660728455,
				0.3618754744529724
			]
		}
	],
	"materials":[
		{
			"doubleSided":true,
			"name":"Material.001",
			"pbrMetallicRoughness":{
				"baseColorFactor":[
					0.7230615019798279,
					0.5268614888191223,
					0.28210437297821045,
					1
				],
				"metallicFactor":0,
				"roughnessFactor":0.5
			}
		},
		{
			"doubleSided":true,
			"emissiveFactor":[
				0.05150961718147218,
				0.18280684569563554,
				0.22560644984268574
			],
			"name":"\u6750\u8cea.003",
			"pbrMetallicRoughness":{
				"baseColorFactor":[
					0.800000011920929,
					0.800000011920929,
					0.800000011920929,
					1
				],
				"metallicFactor":0,
				"roughnessFactor":0.5
			}
		},
		{
			"doubleSided":true,
			"name":"\u6750\u8cea.001",
			"pbrMetallicRoughness":{
				"baseColorFactor":[
					0.06306867301464081,
					0.06692726910114288,
					0.06917889416217804,
					1
				],
				"metallicFactor":0,
				"roughnessFactor":0.5
			}
		},
		{
			"doubleSided":true,
			"emissiveFactor":[
				0.09999999403953552,
				0.048931369249142875,
				0.00834945539537335
			],
			"name":"\u6750\u8cea.004",
			"pbrMetallicRoughness":{
				"baseColorFactor":[
					0.02241998352110386,
					0.03853645175695419,
					0.022203296422958374,
					1
				],
				"metallicFactor":0,
				"roughnessFactor":0.5
			}
		},
		{
			"doubleSided":true,
			"name":"\u6750\u8cea.002",
			"pbrMetallicRoughness":{
				"baseColorFactor":[
					0.11333431303501129,
					0.07255495339632034,
					0.05215299874544144,
					1
				],
				"metallicFactor":0,
				"roughnessFactor":0.5
			}
		},
		{
			"doubleSided":true,
			"name":"\u6750\u8cea.006",
			"pbrMetallicRoughness":{
				"baseColorFactor":[
					0.05427539348602295,
					0.05427539348602295,
					0.05427539348602295,
					1
				],
				"metallicFactor":0,
				"roughnessFactor":0.5
			}
		},
		{
			"doubleSided":true,
			"name":"\u6750\u8cea",
			"pbrMetallicRoughness":{
				"baseColorFactor":[
					0.2790171205997467,
					0.3681105375289917,
					0.3746839761734009,
					1
				],
				"metallicFactor":0.5696202516555786,
				"roughnessFactor":0.5
			}
		}
	],
	"meshes":[
		{
			"name":"Cube.001",
			"primitives":[
				{
					"attributes":{
						"POSITION":0,
						"NORMAL":1,
						"TEXCOORD_0":2
					},
					"indices":3,
					"material":0
				}
			]
		},
		{
			"name":"Cube.004",
			"primitives":[
				{
					"attributes":{
						"POSITION":4,
						"NORMAL":5,
						"TEXCOORD_0":6
					},
					"indices":7,
					"material":1
				}
			]
		},
		{
			"name":"Cube.002",
			"primitives":[
				{
					"attributes":{
						"POSITION":8,
						"NORMAL":9,
						"TEXCOORD_0":10
					},
					"indices":11,
					"material":2
				}
			]
		},
		{
			"name":"Cube.003",
			"primitives":[
				{
					"attributes":{
						"POSITION":12,
						"NORMAL":13,
						"TEXCOORD_0":14
					},
					"indices":15,
					"material":3
				}
			]
		},
		{
			"name":"Cube.006",
			"primitives":[
				{
					"attributes":{
						"POSITION":16,
						"NORMAL":17,
						"TEXCOORD_0":18
					},
					"indices":19,
					"material":3
				}
			]
		},
		{
			"name":"\u7acb\u65b9\u9ad4.001",
			"primitives":[
				{
					"attributes":{
						"POSITION":20,
						"NORMAL":21,
						"TEXCOORD_0":22
					},
					"indices":23,
					"material":4
				}
			]
		},
		{
			"name":"Cube.007",
			"primitives":[
				{
					"attributes":{
						"POSITION":24,
						"NORMAL":25,
						"TEXCOORD_0":26
					},
					"indices":27,
					"material":1
				}
			]
		},
		{
			"name":"Cube.008",
			"primitives":[
				{
					"attributes":{
						"POSITION":28,
						"NORMAL":29,
						"TEXCOORD_0":30
					},
					"indices":31,
					"material":2
				}
			]
		},
		{
			"name":"Cube.009",
			"primitives":[
				{
					"attributes":{
						"POSITION":32,
						"NORMAL":33,
						"TEXCOORD_0":34
					},
					"indices":35,
					"material":5
				}
			]
		},
		{
			"name":"B\u00e9zierCircle",
			"primitives":[
				{
					"attributes":{
						"POSITION":36,
						"NORMAL":37,
						"TEXCOORD_0":38
					},
					"indices":39,
					"material":6
				}
			]
		},
		{
			"name":"Nurbs\u66f2\u7dda",
			"primitives":[
				{
					"attributes":{
						"POSITION":40,
						"NORMAL":41,
						"TEXCOORD_0":42
					},
					"indices":43,
					"material":6
				}
			]
		}
	],
	"accessors":[
		{
			"bufferView":0,
			"componentType":5126,
			"count":291,
			"max":[
				0.6535780429840088,
				0.8588398694992065,
				0.6465034484863281
			],
			"min":[
				0,
				-1.6304469108581543,
				-0.5800862908363342
			],
			"type":"VEC3"
		},
		{
			"bufferView":1,
			"componentType":5126,
			"count":291,
			"type":"VEC3"
		},
		{
			"bufferView":2,
			"componentType":5126,
			"count":291,
			"type":"VEC2"
		},
		{
			"bufferView":3,
			"componentType":5123,
			"count":423,
			"type":"SCALAR"
		},
		{
			"bufferView":4,
			"componentType":5126,
			"count":62,
			"max":[
				0.6021728515625,
				0.007691871840506792,
				0.36685657501220703
			],
			"min":[
				0,
				-0.7692379951477051,
				-0.2212437093257904
			],
			"type":"VEC3"
		},
		{
			"bufferView":5,
			"componentType":5126,
			"count":62,
			"type":"VEC3"
		},
		{
			"bufferView":6,
			"componentType":5126,
			"count":62,
			"type":"VEC2"
		},
		{
			"bufferView":7,
			"componentType":5123,
			"count":90,
			"type":"SCALAR"
		},
		{
			"bufferView":8,
			"componentType":5126,
			"count":16,
			"max":[
				0.3201431632041931,
				-1.2887194156646729,
				0.29368430376052856
			],
			"min":[
				0.03692564368247986,
				-1.5291025638580322,
				-0.07321365177631378
			],
			"type":"VEC3"
		},
		{
			"bufferView":9,
			"componentType":5126,
			"count":16,
			"type":"VEC3"
		},
		{
			"bufferView":10,
			"componentType":5126,
			"count":16,
			"type":"VEC2"
		},
		{
			"bufferView":11,
			"componentType":5123,
			"count":24,
			"type":"SCALAR"
		},
		{
			"bufferView":12,
			"componentType":5126,
			"count":51,
			"max":[
				0.34049761295318604,
				-1.5289747714996338,
				0.423900842666626
			],
			"min":[
				0.07475258409976959,
				-1.6304469108581543,
				-0.09316794574260712
			],
			"type":"VEC3"
		},
		{
			"bufferView":13,
			"componentType":5126,
			"count":51,
			"type":"VEC3"
		},
		{
			"bufferView":14,
			"componentType":5126,
			"count":51,
			"type":"VEC2"
		},
		{
			"bufferView":15,
			"componentType":5123,
			"count":69,
			"type":"SCALAR"
		},
		{
			"bufferView":16,
			"componentType":5126,
			"count":6,
			"max":[
				0.34049761295318604,
				-1.5814965963363647,
				0.3810071647167206
			],
			"min":[
				0.0754178911447525,
				-1.6304469108581543,
				-0.09316794574260712
			],
			"type":"VEC3"
		},
		{
			"bufferView":17,
			"componentType":5126,
			"count":6,
			"type":"VEC3"
		},
		{
			"bufferView":18,
			"componentType":5126,
			"count":6,
			"type":"VEC2"
		},
		{
			"bufferView":19,
			"componentType":5123,
			"count":6,
			"type":"SCALAR"
		},
		{
			"bufferView":20,
			"componentType":5126,
			"count":24,
			"max":[
				0.04890216514468193,
				0.08534809947013855,
				0.04795749858021736
			],
			"min":[
				-0.04890216514468193,
				-0.08534809947013855,
				-0.04795749858021736
			],
			"type":"VEC3"
		},
		{
			"bufferView":21,
			"componentType":5126,
			"count":24,
			"type":"VEC3"
		},
		{
			"bufferView":22,
			"componentType":5126,
			"count":24,
			"type":"VEC2"
		},
		{
			"bufferView":23,
			"componentType":5123,
			"count":36,
			"type":"SCALAR"
		},
		{
			"bufferView":24,
			"componentType":5126,
			"count":12,
			"max":[
				0.4174647927284241,
				-0.7437191605567932,
				0.3199763298034668
			],
			"min":[
				0,
				-0.9923974275588989,
				-0.20551863312721252
			],
			"type":"VEC3"
		},
		{
			"bufferView":25,
			"componentType":5126,
			"count":12,
			"type":"VEC3"
		},
		{
			"bufferView":26,
			"componentType":5126,
			"count":12,
			"type":"VEC2"
		},
		{
			"bufferView":27,
			"componentType":5123,
			"count":18,
			"type":"SCALAR"
		},
		{
			"bufferView":28,
			"componentType":5126,
			"count":16,
			"max":[
				0.4174647927284241,
				-0.9509144425392151,
				0.3199763298034668
			],
			"min":[
				0,
				-1.288907766342163,
				-0.173212468624115
			],
			"type":"VEC3"
		},
		{
			"bufferView":29,
			"componentType":5126,
			"count":16,
			"type":"VEC3"
		},
		{
			"bufferView":30,
			"componentType":5126,
			"count":16,
			"type":"VEC2"
		},
		{
			"bufferView":31,
			"componentType":5123,
			"count":24,
			"type":"SCALAR"
		},
		{
			"bufferView":32,
			"componentType":5126,
			"count":33,
			"max":[
				0.508348822593689,
				0.8588398694992065,
				0.6369112133979797
			],
			"min":[
				0,
				-0.15649983286857605,
				-0.5800862908363342
			],
			"type":"VEC3"
		},
		{
			"bufferView":33,
			"componentType":5126,
			"count":33,
			"type":"VEC3"
		},
		{
			"bufferView":34,
			"componentType":5126,
			"count":33,
			"type":"VEC2"
		},
		{
			"bufferView":35,
			"componentType":5123,
			"count":45,
			"type":"SCALAR"
		},
		{
			"bufferView":36,
			"componentType":5126,
			"count":637,
			"max":[
				0.9007793068885803,
				1.8061835765838623,
				-0.5801159143447876
			],
			"min":[
				0.0879894345998764,
				1.7300471067428589,
				-1.1324197053909302
			],
			"type":"VEC3"
		},
		{
			"bufferView":37,
			"componentType":5126,
			"count":637,
			"type":"VEC3"
		},
		{
			"bufferView":38,
			"componentType":5126,
			"count":637,
			"type":"VEC2"
		},
		{
			"bufferView":39,
			"componentType":5123,
			"count":3456,
			"type":"SCALAR"
		},
		{
			"bufferView":40,
			"componentType":5126,
			"count":468,
			"max":[
				0.05037081986665726,
				0.02307989075779915,
				-0.07419184595346451
			],
			"min":[
				-0.04060603678226471,
				0.0023180264979600906,
				-0.09403708577156067
			],
			"type":"VEC3"
		},
		{
			"bufferView":41,
			"componentType":5126,
			"count":468,
			"type":"VEC3"
		},
		{
			"bufferView":42,
			"componentType":5126,
			"count":468,
			"type":"VEC2"
		},
		{
			"bufferView":43,
			"componentType":5123,
			"count":2520,
			"type":"SCALAR"
		}
	],
	"bufferViews":[
		{
			"buffer":0,
			"byteLength":3492,
			"byteOffset":0,
			"target":34962
		},
		{
			"buffer":0,
			"byteLength":3492,
			"byteOffset":3492,
			"target":34962
		},
		{
			"buffer":0,
			"byteLength":2328,
			"byteOffset":6984,
			"target":34962
		},
		{
			"buffer":0,
			"byteLength":846,
			"byteOffset":9312,
			"target":34963
		},
		{
			"buffer":0,
			"byteLength":744,
			"byteOffset":10160,
			"target":34962
		},
		{
			"buffer":0,
			"byteLength":744,
			"byteOffset":10904,
			"target":34962
		},
		{
			"buffer":0,
			"byteLength":496,
			"byteOffset":11648,
			"target":34962
		},
		{
			"buffer":0,
			"byteLength":180,
			"byteOffset":12144,
			"target":34963
		},
		{
			"buffer":0,
			"byteLength":192,
			"byteOffset":12324,
			"target":34962
		},
		{
			"buffer":0,
			"byteLength":192,
			"byteOffset":12516,
			"target":34962
		},
		{
			"buffer":0,
			"byteLength":128,
			"byteOffset":12708,
			"target":34962
		},
		{
			"buffer":0,
			"byteLength":48,
			"byteOffset":12836,
			"target":34963
		},
		{
			"buffer":0,
			"byteLength":612,
			"byteOffset":12884,
			"target":34962
		},
		{
			"buffer":0,
			"byteLength":612,
			"byteOffset":13496,
			"target":34962
		},
		{
			"buffer":0,
			"byteLength":408,
			"byteOffset":14108,
			"target":34962
		},
		{
			"buffer":0,
			"byteLength":138,
			"byteOffset":14516,
			"target":34963
		},
		{
			"buffer":0,
			"byteLength":72,
			"byteOffset":14656,
			"target":34962
		},
		{
			"buffer":0,
			"byteLength":72,
			"byteOffset":14728,
			"target":34962
		},
		{
			"buffer":0,
			"byteLength":48,
			"byteOffset":14800,
			"target":34962
		},
		{
			"buffer":0,
			"byteLength":12,
			"byteOffset":14848,
			"target":34963
		},
		{
			"buffer":0,
			"byteLength":288,
			"byteOffset":14860,
			"target":34962
		},
		{
			"buffer":0,
			"byteLength":288,
			"byteOffset":15148,
			"target":34962
		},
		{
			"buffer":0,
			"byteLength":192,
			"byteOffset":15436,
			"target":34962
		},
		{
			"buffer":0,
			"byteLength":72,
			"byteOffset":15628,
			"target":34963
		},
		{
			"buffer":0,
			"byteLength":144,
			"byteOffset":15700,
			"target":34962
		},
		{
			"buffer":0,
			"byteLength":144,
			"byteOffset":15844,
			"target":34962
		},
		{
			"buffer":0,
			"byteLength":96,
			"byteOffset":15988,
			"target":34962
		},
		{
			"buffer":0,
			"byteLength":36,
			"byteOffset":16084,
			"target":34963
		},
		{
			"buffer":0,
			"byteLength":192,
			"byteOffset":16120,
			"target":34962
		},
		{
			"buffer":0,
			"byteLength":192,
			"byteOffset":16312,
			"target":34962
		},
		{
			"buffer":0,
			"byteLength":128,
			"byteOffset":16504,
			"target":34962
		},
		{
			"buffer":0,
			"byteLength":48,
			"byteOffset":16632,
			"target":34963
		},
		{
			"buffer":0,
			"byteLength":396,
			"byteOffset":16680,
			"target":34962
		},
		{
			"buffer":0,
			"byteLength":396,
			"byteOffset":17076,
			"target":34962
		},
		{
			"buffer":0,
			"byteLength":264,
			"byteOffset":17472,
			"target":34962
		},
		{
			"buffer":0,
			"byteLength":90,
			"byteOffset":17736,
			"target":34963
		},
		{
			"buffer":0,
			"byteLength":7644,
			"byteOffset":17828,
			"target":34962
		},
		{
			"buffer":0,
			"byteLength":7644,
			"byteOffset":25472,
			"target":34962
		},
		{
			"buffer":0,
			"byteLength":5096,
			"byteOffset":33116,
			"target":34962
		},
		{
			"buffer":0,
			"byteLength":6912,
			"byteOffset":38212,
			"target":34963
		},
		{
			"buffer":0,
			"byteLength":5616,
			"byteOffset":45124,
			"target":34962
		},
		{
			"buffer":0,
			"byteLength":5616,
			"byteOffset":50740,
			"target":34962
		},
		{
			"buffer":0,
			"byteLength":3744,
			"byteOffset":56356,
			"target":34962
		},
		{
			"buffer":0,
			"byteLength":5040,
			"byteOffset":60100,
			"target":34963
		}
	],
	"buffers":[
		{
			"byteLength":65140,
			"uri":"teacher.bin"
		}
	]
}
